<svg height="20" viewBox="0 0 20 20" width="20" xmlns="http://www.w3.org/2000/svg"><path d="m14.0923077 14.5384615c.8404615 0 1.5230769-.6812307 1.5230769-1.5092307 0-.9055385-1.0149231-.9318462-1.5230769-2.4812308 0 0-.4430769-2.79692308-.5095385-4.39338462-.1190769-3.01707692-2.4992307-5.45538461-5.5827692-5.45538461-3.08353846 0-5.46369231 2.44384615-5.58415385 5.45676923-.0636923 1.59646154-.50815384 4.3809231-.50815384 4.3809231-.50953846 1.5701538-1.52307692 1.5826154-1.52307692 2.5753846 0 .8210769.68261538 1.4261538 1.52307692 1.4261538zm-8.86153847 0c0 1.5286154 1.24061539 2.7692308 2.76923077 2.7692308s2.7692308-1.2406154 2.7692308-2.7692308z" fill="none" stroke="#36434d" stroke-linecap="round" stroke-linejoin="round" transform="translate(2 1)"/></svg>